<svg width="826" height="952" viewBox="0 0 826 952" fill="none" xmlns="http://www.w3.org/2000/svg">
<g clip-path="url(#clip0_171_120)">
<path fill-rule="evenodd" clip-rule="evenodd" d="M254.607 730.696C255.916 733.315 257.225 735.279 257.88 736.589C276.206 769.981 293.878 803.373 312.204 836.765C314.168 840.039 314.168 842.657 312.859 845.931C293.878 879.978 275.551 914.025 256.571 948.726C255.916 949.381 255.261 950.691 254.607 952C253.298 950.036 252.643 948.726 251.334 947.417C233.008 914.025 214.681 879.978 196.355 846.586C194.391 843.312 193.737 840.693 195.7 837.42C214.681 803.373 233.008 768.671 251.334 734.624C252.643 733.315 253.298 732.66 254.607 730.696ZM253.952 942.179C255.261 940.869 256.571 939.56 256.571 938.25C273.588 907.477 289.951 876.05 306.968 845.276C308.932 842.003 308.277 839.384 306.968 836.765C289.951 805.992 273.588 775.219 257.225 744.446C256.571 743.136 255.261 741.827 254.607 740.517C253.952 741.827 253.298 742.481 252.643 743.136C235.626 774.564 218.609 805.992 201.591 837.42C199.628 840.693 200.282 843.312 202.246 845.931C214.027 866.883 225.154 887.835 236.281 909.442C242.171 919.917 248.062 931.048 253.952 942.179Z" fill="url(#paint0_linear_171_120)"/>
<path fill-rule="evenodd" clip-rule="evenodd" d="M254.607 220.649C253.298 218.685 251.989 216.721 251.334 215.411C233.008 182.019 215.336 148.627 197.01 114.581C195.046 111.307 194.392 108.688 196.355 105.414C215.336 70.7125 233.662 36.6657 252.643 1.96421C253.298 1.30947 253.952 0.654765 254.607 -0.654729C255.916 0.654765 256.571 1.96429 257.225 3.27378C275.551 37.3206 293.878 71.3673 312.859 105.414C314.822 108.688 314.822 110.652 312.859 113.926C293.878 147.973 275.551 182.674 257.225 216.721C255.916 218.03 255.916 219.34 254.607 220.649ZM254.607 9.16645C253.298 11.7854 251.989 13.0949 251.334 15.0591C234.971 44.5227 219.263 74.641 202.9 104.105C200.282 108.688 200.937 111.307 202.9 115.89C219.263 145.354 234.971 175.472 251.334 204.935C251.989 206.9 253.298 208.209 254.607 210.828C255.916 208.864 257.225 206.9 257.88 205.59C274.242 175.472 289.951 145.354 306.968 115.89C308.932 111.962 308.932 108.688 306.968 104.759C290.605 74.6411 274.242 44.5227 257.88 15.0591C257.225 13.0949 255.916 11.7854 254.607 9.16645Z" fill="url(#paint1_linear_171_120)"/>
<path fill-rule="evenodd" clip-rule="evenodd" d="M571.393 769.326C570.084 766.707 568.775 764.743 567.466 762.779C549.794 730.041 532.122 697.304 514.45 664.567C511.832 660.638 511.832 657.365 514.45 652.781C532.122 620.044 549.794 587.307 567.466 554.57C568.775 552.605 569.429 550.641 571.393 548.022C572.702 549.986 573.357 551.296 574.011 551.951C592.338 585.997 610.664 619.389 628.99 653.436C630.954 656.71 631.609 659.329 629.645 662.603C610.664 696.649 592.338 731.351 574.011 765.398C573.357 766.707 572.702 767.362 571.393 769.326ZM571.393 557.843C570.084 559.153 570.084 559.808 569.429 560.462C552.412 591.89 535.395 623.318 518.377 654.746C516.414 658.019 517.068 659.984 518.377 662.603C535.395 693.376 551.757 724.149 568.12 754.922C568.775 756.231 570.084 756.886 570.738 758.195C571.393 756.886 572.048 756.231 572.702 755.577C589.719 724.803 606.082 693.376 623.1 662.603C625.063 658.674 624.409 656.055 622.445 652.781C606.082 623.318 590.374 593.2 574.011 563.736C574.011 561.772 573.357 560.462 571.393 557.843Z" fill="url(#paint2_linear_171_120)"/>
<path fill-rule="evenodd" clip-rule="evenodd" d="M316.786 328.682C320.059 328.682 322.022 328.682 323.986 328.682C361.948 329.992 399.255 330.646 437.217 331.956C441.144 331.956 444.417 333.265 446.38 337.194C466.67 369.931 486.96 402.668 506.596 436.06C507.25 437.37 507.905 438.025 508.559 439.989C506.596 439.989 505.287 440.644 503.978 440.644C465.361 439.334 426.745 438.679 387.474 437.37C383.547 437.37 381.583 436.06 379.62 432.787C359.33 399.395 339.04 366.657 318.75 333.92C318.75 331.956 318.095 330.646 316.786 328.682ZM325.949 333.92C327.258 335.884 327.258 337.194 328.567 338.503C346.894 367.967 365.22 397.43 382.892 427.549C384.856 430.822 387.474 432.132 390.746 432.132C425.436 432.787 459.471 434.096 494.16 434.751C496.124 434.751 497.433 434.751 500.051 434.751C499.396 432.787 499.396 432.132 498.742 431.477C479.761 400.704 461.434 370.586 442.453 339.813C440.49 337.194 438.526 336.539 435.908 336.539C401.219 335.884 365.875 334.575 331.185 333.92C329.876 333.92 327.913 333.92 325.949 333.92Z" fill="url(#paint3_linear_171_120)"/>
<path fill-rule="evenodd" clip-rule="evenodd" d="M191.773 328.682C183.265 342.432 175.41 355.527 167.556 368.622C154.466 389.573 142.03 410.525 128.94 430.822C126.976 434.096 125.667 436.06 121.086 436.06C81.8145 436.715 42.5435 438.024 3.27252 439.334C2.61801 439.334 1.30898 439.334 -6.10352e-05 439.334C0.65445 438.024 1.30894 436.06 1.96346 434.751C22.2535 402.014 42.5435 369.276 62.179 335.884C64.1426 332.611 66.1061 331.301 70.0332 330.646C109.304 329.992 147.921 328.682 187.192 327.373C189.155 328.682 189.81 328.682 191.773 328.682ZM8.50862 434.751C10.4722 434.751 11.1267 435.406 11.7812 434.751C47.7796 434.096 83.7781 432.787 119.122 432.132C122.395 432.132 124.358 430.168 125.667 427.549C143.994 397.43 162.32 367.967 180.647 337.848C181.301 336.539 181.956 335.23 182.61 333.265C179.992 333.265 178.029 333.265 176.719 333.265C142.685 333.92 107.995 335.23 73.9603 335.884C70.0332 335.884 67.4152 337.848 65.4516 341.122C47.7797 370.586 29.4532 399.395 11.7812 428.858C10.4722 430.822 9.81766 432.132 8.50862 434.751Z" fill="url(#paint4_linear_171_120)"/>
<path fill-rule="evenodd" clip-rule="evenodd" d="M-5.13616e-05 146.663C1.9635 146.663 3.92703 146.008 5.23605 146.008C43.8525 147.318 81.8145 147.972 120.431 149.282C123.704 149.282 126.322 149.937 128.94 153.21C149.23 186.602 170.174 219.994 190.464 253.386C191.119 254.041 191.119 254.696 191.773 256.66C189.81 256.66 187.846 257.315 186.537 257.315C148.575 256.005 110.613 255.351 71.9968 254.041C68.0697 254.041 64.7971 252.732 62.8335 248.803C43.198 216.066 22.908 183.329 2.61798 150.591C1.96346 149.937 1.30898 148.627 -5.13616e-05 146.663ZM9.16314 151.246C9.81767 152.556 9.8177 153.21 9.8177 153.865C28.7987 184.638 47.7797 215.411 66.1061 246.184C68.0697 248.803 70.0332 249.458 72.6513 249.458C107.341 250.113 142.685 251.422 177.374 252.077C178.683 252.077 179.992 252.077 182.61 251.422C181.301 248.803 179.992 246.839 179.337 244.875C161.666 216.721 143.994 187.912 126.976 159.758C124.358 155.175 121.74 153.865 116.504 153.865C84.4326 153.21 52.3613 151.901 20.29 151.246C17.0174 151.246 13.0902 151.246 9.16314 151.246Z" fill="url(#paint5_linear_171_120)"/>
<path fill-rule="evenodd" clip-rule="evenodd" d="M634.227 439.334C644.044 423.62 652.553 409.216 661.716 394.811C673.498 375.824 685.279 356.181 697.06 337.194C699.024 333.92 701.642 331.956 705.569 331.956C744.185 331.301 782.802 329.991 822.073 328.682C823.382 328.682 824.036 328.682 826 328.682C825.345 330.646 824.691 331.956 823.382 333.265C803.092 366.002 783.456 398.74 763.166 431.477C761.203 434.751 759.239 436.06 755.312 436.06C716.696 436.715 678.079 438.024 638.808 439.334C637.499 439.989 636.19 439.334 634.227 439.334ZM702.951 336.539C682.661 369.276 663.025 401.359 642.735 434.751C644.699 434.751 645.353 435.406 646.662 435.406C682.006 434.751 718.005 433.441 753.349 432.787C757.276 432.787 758.585 430.822 760.548 428.203C778.875 398.74 796.547 369.276 814.873 339.813C815.528 338.503 816.182 336.539 817.491 334.575C778.22 334.575 740.258 335.229 702.951 336.539Z" fill="url(#paint6_linear_171_120)"/>
<path fill-rule="evenodd" clip-rule="evenodd" d="M826 622.663C783.456 621.354 741.567 620.044 699.678 619.389C678.079 584.033 655.826 548.022 633.572 512.011C636.19 512.011 638.154 511.356 640.117 512.011C678.079 513.321 716.041 513.975 754.658 515.285C757.93 515.285 760.548 515.94 763.166 519.868C783.456 552.605 803.746 586.652 824.691 620.044C825.345 620.699 825.345 621.354 826 622.663ZM816.837 617.425C816.182 616.116 816.182 615.461 815.528 614.151C797.201 584.033 778.22 553.915 759.894 523.796C757.93 520.523 755.312 519.868 752.04 519.868C717.35 519.213 683.315 517.904 648.626 517.249C646.662 517.249 645.353 517.249 642.735 517.249C644.044 519.868 644.699 521.177 646.008 523.142C663.68 551.951 681.352 580.105 699.024 608.913C701.642 613.497 704.914 615.461 710.151 615.461C736.986 616.116 764.475 616.77 791.311 617.425C799.819 617.425 807.674 617.425 816.837 617.425Z" fill="url(#paint7_linear_171_120)"/>
<path fill-rule="evenodd" clip-rule="evenodd" d="M316.786 256.66C318.095 254.041 319.404 252.077 320.713 250.113C340.349 218.685 359.984 186.602 378.965 155.175C381.583 150.591 384.856 149.282 389.437 149.282C427.399 148.627 464.707 147.318 502.669 146.008C504.632 146.008 505.941 146.008 508.559 146.008C507.25 148.627 506.596 149.937 505.287 151.901C485.651 183.983 465.361 216.721 445.726 248.803C443.762 252.077 441.144 254.041 437.217 254.041C398.601 254.696 359.984 256.005 320.713 257.315C320.059 257.315 319.404 257.315 316.786 256.66ZM325.949 251.422C327.913 251.422 328.567 252.077 329.876 252.077C365.22 251.422 401.219 250.113 436.563 249.458C439.835 249.458 441.144 247.494 443.108 245.529C461.434 215.411 479.761 185.293 498.087 155.829C498.742 154.52 499.396 153.21 500.051 151.246C498.087 151.246 496.778 151.246 495.469 151.246C460.78 151.901 426.09 153.21 391.401 153.865C387.474 153.865 384.856 155.829 382.892 159.103C365.22 188.567 346.894 217.375 329.222 246.839C327.913 248.148 327.258 249.458 325.949 251.422Z" fill="url(#paint8_linear_171_120)"/>
<path fill-rule="evenodd" clip-rule="evenodd" d="M508.559 805.337C502.669 805.337 498.087 805.337 492.851 805.337C458.816 804.682 424.127 803.373 390.092 802.718C384.856 802.718 381.583 800.754 378.965 796.17C359.33 764.088 339.694 732.005 320.059 699.923C319.404 698.613 318.75 697.304 317.441 695.34C319.404 695.34 320.713 694.685 322.022 694.685C360.639 695.994 399.255 696.649 438.526 697.959C441.799 697.959 443.762 698.613 445.726 701.887C466.016 734.624 486.306 768.671 507.25 802.063C507.905 802.718 507.905 803.373 508.559 805.337ZM500.051 800.099C499.396 798.135 498.742 797.48 498.087 796.825C479.761 766.707 460.78 736.589 442.453 706.47C440.49 703.197 438.526 702.542 434.599 702.542C399.91 701.887 364.566 700.578 329.876 699.923C328.567 699.923 327.258 700.578 325.295 700.578C325.949 701.887 326.604 702.542 326.604 703.851C344.93 733.97 363.911 764.088 382.238 794.206C384.201 797.48 386.819 798.135 390.746 798.135C424.781 798.789 458.816 800.099 492.851 800.754C495.469 800.099 497.433 800.099 500.051 800.099Z" fill="url(#paint9_linear_171_120)"/>
<path fill-rule="evenodd" clip-rule="evenodd" d="M191.773 694.685C190.464 696.649 190.464 697.959 189.81 698.613C169.52 731.351 149.23 764.088 129.594 797.48C127.631 800.754 125.013 802.718 121.086 802.718C82.4691 803.373 44.5071 804.682 5.89058 805.992C4.58154 805.992 2.61803 805.992 0.65448 805.992C1.9635 804.027 1.96352 802.063 3.27255 800.754C22.9081 768.016 43.1981 735.934 62.8336 703.197C64.7971 699.923 66.1061 697.959 70.6877 697.959C109.959 697.304 149.23 695.994 188.501 694.685C189.155 694.03 189.81 694.685 191.773 694.685ZM183.265 699.268C180.647 699.268 179.992 699.268 178.683 699.268C143.994 699.923 108.65 701.232 73.9603 701.887C70.0332 701.887 67.4152 703.851 65.4516 707.125C47.7797 736.589 29.4532 765.397 11.7812 794.861C11.1267 796.17 9.81767 798.135 9.16316 800.099C11.7812 800.099 13.0903 800.754 15.0538 800.754C49.7432 800.099 83.7781 798.789 118.467 798.135C122.395 798.135 125.013 796.171 126.976 792.897C144.648 764.088 162.32 734.624 180.647 705.816C181.301 703.851 181.956 701.887 183.265 699.268Z" fill="url(#paint10_linear_171_120)"/>
<path fill-rule="evenodd" clip-rule="evenodd" d="M191.773 622.663C189.81 622.663 189.155 623.318 187.846 623.318C148.575 622.008 109.304 621.354 70.0332 620.044C66.7606 620.044 64.7971 619.389 63.488 616.77C43.198 583.378 22.2535 549.332 1.30897 515.94C0.654444 515.285 0.654459 514.63 -5.13617e-05 512.666C2.61802 512.666 3.92701 512.011 5.89056 512.011C43.8525 513.321 81.8145 513.975 119.776 515.285C123.049 515.285 126.322 515.94 128.285 519.213C149.23 553.26 169.52 586.652 190.464 620.699C191.119 620.699 191.119 621.354 191.773 622.663ZM9.16314 517.249C10.4722 519.213 11.1267 521.178 12.4357 523.142C30.1077 551.951 47.7797 580.759 65.4516 609.568C68.0697 613.497 70.6877 615.461 75.9239 615.461C109.304 616.116 143.339 617.425 176.719 618.08C178.683 618.08 181.301 618.08 183.919 618.08C183.265 616.77 183.265 615.461 182.61 614.806C163.629 584.033 145.303 553.915 126.322 523.142C124.358 520.523 122.395 519.868 119.776 519.868C84.4326 519.213 49.0887 517.904 14.3993 517.249C11.7812 516.594 11.1267 517.249 9.16314 517.249Z" fill="url(#paint11_linear_171_120)"/>
<path fill-rule="evenodd" clip-rule="evenodd" d="M508.559 512.011C507.25 514.63 505.941 516.594 504.632 518.559C484.997 550.641 465.361 582.069 445.726 614.151C443.108 618.08 440.49 619.389 435.908 619.389C397.946 620.044 359.984 621.354 322.022 622.663C320.059 622.663 318.75 622.663 316.132 622.663C317.441 620.699 318.095 619.389 318.75 618.08C339.04 585.343 358.675 552.605 378.965 519.868C380.929 516.594 382.892 514.63 387.474 514.63C426.09 513.975 464.707 512.666 503.978 511.356C505.287 512.011 506.596 512.011 508.559 512.011ZM325.295 618.08C327.258 618.08 328.567 618.08 329.876 618.08C365.22 617.425 400.564 616.116 435.254 615.461C439.181 615.461 441.144 613.497 443.108 610.223C461.434 580.759 479.761 551.296 497.433 521.178C498.087 519.868 498.742 518.559 499.396 516.594C496.778 516.594 494.16 516.594 492.197 516.594C458.816 517.249 425.436 518.559 392.055 519.213C386.819 519.213 384.201 521.178 381.583 525.106C364.566 553.915 346.894 582.069 329.222 610.878C327.913 612.842 327.258 614.806 325.295 618.08Z" fill="url(#paint12_linear_171_120)"/>
<path fill-rule="evenodd" clip-rule="evenodd" d="M254.607 364.693C255.916 367.312 257.225 368.622 257.88 370.586C275.551 403.978 293.878 436.715 311.55 470.107C313.513 474.036 313.513 477.309 311.55 481.238C293.223 514.63 275.551 548.022 257.225 581.414C256.57 582.723 255.261 584.688 253.952 586.652C252.643 584.688 251.334 583.378 250.68 582.069C232.353 548.677 214.027 514.63 195.7 481.238C194.391 478.619 193.082 476 195.046 472.726C214.027 438.025 232.353 403.323 251.334 368.622C253.298 367.312 253.298 366.657 254.607 364.693ZM254.607 375.169C253.952 376.479 253.298 377.788 252.643 378.443C235.626 409.871 218.609 440.644 202.246 472.071C200.282 475.345 200.937 477.964 202.246 480.583C218.609 511.356 235.626 541.474 251.989 572.247C252.643 573.557 253.952 574.866 255.261 576.831C256.571 574.866 257.225 572.902 258.534 571.593C274.897 541.474 290.605 511.356 307.623 481.893C309.586 477.964 309.586 474.69 307.623 470.762C291.26 440.644 274.897 410.525 258.534 381.062C256.571 378.443 255.916 377.133 254.607 375.169Z" fill="url(#paint13_linear_171_120)"/>
<path fill-rule="evenodd" clip-rule="evenodd" d="M571.393 182.019C573.357 184.638 574.011 186.603 575.32 187.912C592.992 221.304 611.319 254.041 628.99 287.433C630.954 290.707 631.609 293.326 629.645 297.254C611.319 330.647 592.992 364.693 574.666 398.085C574.011 399.395 573.357 400.704 571.393 403.323C551.103 366.003 531.467 329.992 511.177 292.671C531.467 256.006 551.103 219.995 571.393 182.019ZM626.372 293.326C620.482 279.576 574.666 196.424 571.393 193.15C553.067 226.542 535.395 259.934 517.068 293.326C535.395 326.718 553.067 360.11 572.048 394.812C590.374 359.455 608.046 326.063 626.372 293.326Z" fill="url(#paint14_linear_171_120)"/>
</g>
<defs>
<linearGradient id="paint0_linear_171_120" x1="2198.77" y1="-46.9694" x2="-1090.42" y2="1454.73" gradientUnits="userSpaceOnUse">
<stop stop-color="#B46D13"/>
<stop offset="0.1237" stop-color="#F3AD3B"/>
<stop offset="0.3065" stop-color="#F7DD80"/>
<stop offset="0.4462" stop-color="#FBDB62"/>
<stop offset="0.5538" stop-color="#F3AD3B"/>
<stop offset="0.6774" stop-color="#CC8F36"/>
<stop offset="0.7634" stop-color="#F3AD3B"/>
<stop offset="0.8333" stop-color="#F4D175"/>
<stop offset="0.9892" stop-color="#B9721A"/>
</linearGradient>
<linearGradient id="paint1_linear_171_120" x1="1922.64" y1="-651.9" x2="-1366.63" y2="849.827" gradientUnits="userSpaceOnUse">
<stop stop-color="#B46D13"/>
<stop offset="0.1237" stop-color="#F3AD3B"/>
<stop offset="0.3065" stop-color="#F7DD80"/>
<stop offset="0.4462" stop-color="#FBDB62"/>
<stop offset="0.5538" stop-color="#F3AD3B"/>
<stop offset="0.6774" stop-color="#CC8F36"/>
<stop offset="0.7634" stop-color="#F3AD3B"/>
<stop offset="0.8333" stop-color="#F4D175"/>
<stop offset="0.9892" stop-color="#B9721A"/>
</linearGradient>
<linearGradient id="paint2_linear_171_120" x1="2184.53" y1="-78.3146" x2="-1104.77" y2="1423.43" gradientUnits="userSpaceOnUse">
<stop stop-color="#B46D13"/>
<stop offset="0.1237" stop-color="#F3AD3B"/>
<stop offset="0.3065" stop-color="#F7DD80"/>
<stop offset="0.4462" stop-color="#FBDB62"/>
<stop offset="0.5538" stop-color="#F3AD3B"/>
<stop offset="0.6774" stop-color="#CC8F36"/>
<stop offset="0.7634" stop-color="#F3AD3B"/>
<stop offset="0.8333" stop-color="#F4D175"/>
<stop offset="0.9892" stop-color="#B9721A"/>
</linearGradient>
<linearGradient id="paint3_linear_171_120" x1="2053.37" y1="-365.543" x2="-1235.89" y2="1136.19" gradientUnits="userSpaceOnUse">
<stop stop-color="#B46D13"/>
<stop offset="0.1237" stop-color="#F3AD3B"/>
<stop offset="0.3065" stop-color="#F7DD80"/>
<stop offset="0.4462" stop-color="#FBDB62"/>
<stop offset="0.5538" stop-color="#F3AD3B"/>
<stop offset="0.6774" stop-color="#CC8F36"/>
<stop offset="0.7634" stop-color="#F3AD3B"/>
<stop offset="0.8333" stop-color="#F4D175"/>
<stop offset="0.9892" stop-color="#B9721A"/>
</linearGradient>
<linearGradient id="paint4_linear_171_120" x1="1998.69" y1="-485.152" x2="-1290.45" y2="1016.52" gradientUnits="userSpaceOnUse">
<stop stop-color="#B46D13"/>
<stop offset="0.1237" stop-color="#F3AD3B"/>
<stop offset="0.3065" stop-color="#F7DD80"/>
<stop offset="0.4462" stop-color="#FBDB62"/>
<stop offset="0.5538" stop-color="#F3AD3B"/>
<stop offset="0.6774" stop-color="#CC8F36"/>
<stop offset="0.7634" stop-color="#F3AD3B"/>
<stop offset="0.8333" stop-color="#F4D175"/>
<stop offset="0.9892" stop-color="#B9721A"/>
</linearGradient>
<linearGradient id="paint5_linear_171_120" x1="1929.75" y1="-636.279" x2="-1359.48" y2="865.437" gradientUnits="userSpaceOnUse">
<stop stop-color="#B46D13"/>
<stop offset="0.1237" stop-color="#F3AD3B"/>
<stop offset="0.3065" stop-color="#F7DD80"/>
<stop offset="0.4462" stop-color="#FBDB62"/>
<stop offset="0.5538" stop-color="#F3AD3B"/>
<stop offset="0.6774" stop-color="#CC8F36"/>
<stop offset="0.7634" stop-color="#F3AD3B"/>
<stop offset="0.8333" stop-color="#F4D175"/>
<stop offset="0.9892" stop-color="#B9721A"/>
</linearGradient>
<linearGradient id="paint6_linear_171_120" x1="2108.16" y1="-245.425" x2="-1181.01" y2="1256.27" gradientUnits="userSpaceOnUse">
<stop stop-color="#B46D13"/>
<stop offset="0.1237" stop-color="#F3AD3B"/>
<stop offset="0.3065" stop-color="#F7DD80"/>
<stop offset="0.4462" stop-color="#FBDB62"/>
<stop offset="0.5538" stop-color="#F3AD3B"/>
<stop offset="0.6774" stop-color="#CC8F36"/>
<stop offset="0.7634" stop-color="#F3AD3B"/>
<stop offset="0.8333" stop-color="#F4D175"/>
<stop offset="0.9892" stop-color="#B9721A"/>
</linearGradient>
<linearGradient id="paint7_linear_171_120" x1="2177.43" y1="-93.7719" x2="-1111.8" y2="1407.94" gradientUnits="userSpaceOnUse">
<stop stop-color="#B46D13"/>
<stop offset="0.1237" stop-color="#F3AD3B"/>
<stop offset="0.3065" stop-color="#F7DD80"/>
<stop offset="0.4462" stop-color="#FBDB62"/>
<stop offset="0.5538" stop-color="#F3AD3B"/>
<stop offset="0.6774" stop-color="#CC8F36"/>
<stop offset="0.7634" stop-color="#F3AD3B"/>
<stop offset="0.8333" stop-color="#F4D175"/>
<stop offset="0.9892" stop-color="#B9721A"/>
</linearGradient>
<linearGradient id="paint8_linear_171_120" x1="1984.53" y1="-516.215" x2="-1304.64" y2="985.475" gradientUnits="userSpaceOnUse">
<stop stop-color="#B46D13"/>
<stop offset="0.1237" stop-color="#F3AD3B"/>
<stop offset="0.3065" stop-color="#F7DD80"/>
<stop offset="0.4462" stop-color="#FBDB62"/>
<stop offset="0.5538" stop-color="#F3AD3B"/>
<stop offset="0.6774" stop-color="#CC8F36"/>
<stop offset="0.7634" stop-color="#F3AD3B"/>
<stop offset="0.8333" stop-color="#F4D175"/>
<stop offset="0.9892" stop-color="#B9721A"/>
</linearGradient>
<linearGradient id="paint9_linear_171_120" x1="2191.65" y1="-62.5719" x2="-1097.54" y2="1439.12" gradientUnits="userSpaceOnUse">
<stop stop-color="#B46D13"/>
<stop offset="0.1237" stop-color="#F3AD3B"/>
<stop offset="0.3065" stop-color="#F7DD80"/>
<stop offset="0.4462" stop-color="#FBDB62"/>
<stop offset="0.5538" stop-color="#F3AD3B"/>
<stop offset="0.6774" stop-color="#CC8F36"/>
<stop offset="0.7634" stop-color="#F3AD3B"/>
<stop offset="0.8333" stop-color="#F4D175"/>
<stop offset="0.9892" stop-color="#B9721A"/>
</linearGradient>
<linearGradient id="paint10_linear_171_120" x1="2136.81" y1="-182.621" x2="-1152.32" y2="1319.05" gradientUnits="userSpaceOnUse">
<stop stop-color="#B46D13"/>
<stop offset="0.1237" stop-color="#F3AD3B"/>
<stop offset="0.3065" stop-color="#F7DD80"/>
<stop offset="0.4462" stop-color="#FBDB62"/>
<stop offset="0.5538" stop-color="#F3AD3B"/>
<stop offset="0.6774" stop-color="#CC8F36"/>
<stop offset="0.7634" stop-color="#F3AD3B"/>
<stop offset="0.8333" stop-color="#F4D175"/>
<stop offset="0.9892" stop-color="#B9721A"/>
</linearGradient>
<linearGradient id="paint11_linear_171_120" x1="2067.94" y1="-333.577" x2="-1221.27" y2="1168.13" gradientUnits="userSpaceOnUse">
<stop stop-color="#B46D13"/>
<stop offset="0.1237" stop-color="#F3AD3B"/>
<stop offset="0.3065" stop-color="#F7DD80"/>
<stop offset="0.4462" stop-color="#FBDB62"/>
<stop offset="0.5538" stop-color="#F3AD3B"/>
<stop offset="0.6774" stop-color="#CC8F36"/>
<stop offset="0.7634" stop-color="#F3AD3B"/>
<stop offset="0.8333" stop-color="#F4D175"/>
<stop offset="0.9892" stop-color="#B9721A"/>
</linearGradient>
<linearGradient id="paint12_linear_171_120" x1="2122.59" y1="-213.878" x2="-1166.61" y2="1287.83" gradientUnits="userSpaceOnUse">
<stop stop-color="#B46D13"/>
<stop offset="0.1237" stop-color="#F3AD3B"/>
<stop offset="0.3065" stop-color="#F7DD80"/>
<stop offset="0.4462" stop-color="#FBDB62"/>
<stop offset="0.5538" stop-color="#F3AD3B"/>
<stop offset="0.6774" stop-color="#CC8F36"/>
<stop offset="0.7634" stop-color="#F3AD3B"/>
<stop offset="0.8333" stop-color="#F4D175"/>
<stop offset="0.9892" stop-color="#B9721A"/>
</linearGradient>
<linearGradient id="paint13_linear_171_120" x1="2060.65" y1="-349.486" x2="-1228.52" y2="1152.21" gradientUnits="userSpaceOnUse">
<stop stop-color="#B46D13"/>
<stop offset="0.1237" stop-color="#F3AD3B"/>
<stop offset="0.3065" stop-color="#F7DD80"/>
<stop offset="0.4462" stop-color="#FBDB62"/>
<stop offset="0.5538" stop-color="#F3AD3B"/>
<stop offset="0.6774" stop-color="#CC8F36"/>
<stop offset="0.7634" stop-color="#F3AD3B"/>
<stop offset="0.8333" stop-color="#F4D175"/>
<stop offset="0.9892" stop-color="#B9721A"/>
</linearGradient>
<linearGradient id="paint14_linear_171_120" x1="2046.28" y1="-380.967" x2="-1242.88" y2="1120.72" gradientUnits="userSpaceOnUse">
<stop stop-color="#B46D13"/>
<stop offset="0.1237" stop-color="#F3AD3B"/>
<stop offset="0.3065" stop-color="#F7DD80"/>
<stop offset="0.4462" stop-color="#FBDB62"/>
<stop offset="0.5538" stop-color="#F3AD3B"/>
<stop offset="0.6774" stop-color="#CC8F36"/>
<stop offset="0.7634" stop-color="#F3AD3B"/>
<stop offset="0.8333" stop-color="#F4D175"/>
<stop offset="0.9892" stop-color="#B9721A"/>
</linearGradient>
<clipPath id="clip0_171_120">
<rect width="826" height="952" fill="white" transform="translate(826 952) rotate(-180)"/>
</clipPath>
</defs>
</svg>
