<svg width="194" height="200" viewBox="0 0 194 200" fill="none" xmlns="http://www.w3.org/2000/svg">
<g id="Frame" clip-path="url(#clip0_105_27)">
<g id="Group">
<g id="Group_2">
<path id="Vector" d="M18.7 176.6L15.6 175.8L15.5 176C15.1 177.7 14.4 178.9 13.4 179.8C12.4 180.6 11.1 181.1 9.60003 181.1C8.40003 181.1 7.20002 180.8 6.20002 180.2C5.20002 179.6 4.40002 178.6 3.90002 177.4C3.40002 176.1 3.10002 174.6 3.10002 173C3.10002 171.7 3.30002 170.4 3.70002 169.2C4.10002 168 4.90002 167 5.90002 166.3C6.90002 165.6 8.30002 165.2 9.80002 165.2C11.1 165.2 12.2 165.5 13.1 166.2C14 166.8 14.7 167.9 15.1 169.3L15.2 169.5L18.3 168.8L18.2 168.6C17.6 166.7 16.6 165.2 15.2 164.1C13.8 163.1 12 162.5 9.90002 162.5C8.10002 162.5 6.40002 162.9 4.80002 163.7C3.30002 164.6 2.00002 165.8 1.20002 167.4C0.400024 169 -0.0999756 170.9 -0.0999756 173C-0.0999756 175 0.300024 176.8 1.00002 178.5C1.70002 180.2 2.80002 181.6 4.30002 182.4C5.70002 183.3 7.60003 183.8 9.80002 183.8C12 183.8 13.8 183.2 15.4 182C17 180.8 18 179.1 18.5 176.9L18.7 176.6Z" fill="black"/>
<path id="Vector_2" d="M43.5 163.7C41.9 162.8 40.2 162.3 38.2 162.3C35.2 162.3 32.8 163.3 30.9 165.2C29 167.1 28.1 169.8 28.1 173.2C28.1 175 28.5 176.7 29.3 178.3C30.1 179.9 31.3 181.2 32.8 182.2C34.4 183.1 36.1 183.6 38.1 183.6C39.9 183.6 41.6 183.2 43.2 182.3C44.8 181.5 46 180.2 46.9 178.5C47.8 176.9 48.2 175 48.2 172.9C48.2 170.9 47.8 169 47 167.4C46.3 166 45.1 164.7 43.5 163.7ZM43.2 179C41.9 180.4 40.2 181.1 38.2 181.1C36.2 181.1 34.6 180.4 33.3 179.1C32 177.7 31.3 175.8 31.3 173.4C31.3 170.4 32 168.3 33.3 167C34.6 165.7 36.3 165.1 38.2 165.1C39.5 165.1 40.7 165.4 41.8 166.1C42.8 166.7 43.7 167.7 44.2 168.9C44.8 170.1 45 171.5 45 173.1C45.1 175.6 44.5 177.6 43.2 179Z" fill="black"/>
<path id="Vector_3" d="M79.2 163.1H76.2V183.7H79.2V163.1Z" fill="black"/>
<path id="Vector_4" d="M69.2 180L68.4 177.6L63.5 163.1H63.2V170.6L67.8 183.7H70.5L75.1 170.6V163.3L70.2 177.3C69.7 178.4 69.4 179.3 69.2 180Z" fill="black"/>
<path id="Vector_5" d="M62 163.1H59V183.7H62V163.1Z" fill="black"/>
<path id="Vector_6" d="M92.9 163.1H89.8V183.7H92.9V163.1Z" fill="black"/>
<path id="Vector_7" d="M103.6 164.3C102.9 163.8 102 163.5 101 163.3C100.3 163.1 99.2 163.1 97.8 163.1H94V165.9H98C99.2 165.9 100 166 100.5 166.1C101.2 166.3 101.7 166.7 102.1 167.2C102.5 167.8 102.7 168.5 102.7 169.3C102.7 170.4 102.4 171.3 101.7 171.9C101 172.5 99.8 172.8 98.1 172.8H94V175.6H98C100.9 175.6 103 175 104.2 173.7C105.4 172.5 105.9 171 105.9 169.2C105.9 168.2 105.7 167.2 105.3 166.4C104.9 165.4 104.3 164.7 103.6 164.3Z" fill="black"/>
<path id="Vector_8" d="M127.9 163.1H124.7L116.6 183.7H119.9L120.8 181.3L123.1 175L123.6 173.7L125.3 169.1C125.7 168.1 126 167.1 126.2 166C126.5 167 126.9 168.2 127.5 169.5L129.6 174.9H124.3L123.4 177.4H130.6L133 183.5H136.5L127.9 163.1Z" fill="black"/>
<path id="Vector_9" d="M150.9 169.7L159.4 182.2V176.9L150.9 164.4V169.7Z" fill="black"/>
<path id="Vector_10" d="M160.6 178.6L160.5 178.5V183.7H163.6V163.1H160.6V178.6Z" fill="black"/>
<path id="Vector_11" d="M149.8 163.1H146.9V183.7H149.8V163.1Z" fill="black"/>
<path id="Vector_12" d="M190.3 163.1L186.2 169.2C185.4 170.4 184.7 171.5 184.1 172.5L182.4 175.1V183.8H185.5V175L193.9 163.1H190.3Z" fill="black"/>
<path id="Vector_13" d="M182.2 169.3L178.1 163.1H174.3L181.7 174L183.5 171.3L182.2 169.3Z" fill="black"/>
<path id="Vector_14" d="M0 193.1H2.3V199.5H3.9V193.1H6.1V191.8H0V193.1Z" fill="#FFB41D"/>
<path id="Vector_15" d="M19.3 191.8L16.3 199.5H18L18.6 197.7H21.7001L22.4 199.5H24L20.9 191.8H19.3ZM19 196.5L20.1 193.6L21.2001 196.5H19Z" fill="#FFB41D"/>
<path id="Vector_16" d="M38.3 196.7H40.1V197.7C39.5 198.1 38.9 198.3 38.3 198.3C37.6 198.3 37 198.1 36.7 197.6C36.3 197.1 36.1 196.4 36.1 195.6C36.1 193.9 36.8 193 38.3 193C39.2 193 39.8 193.4 40.1 194.2L41.6 193.9C41.3 192.4 40.2 191.6 38.3 191.6C37.2 191.6 36.3 191.9 35.6 192.6C34.9 193.3 34.5 194.3 34.5 195.6C34.5 196.8 34.8 197.7 35.5 198.5C36.2 199.2 37.1 199.6 38.4 199.6C39.7 199.6 40.8 199.2 41.7 198.4V195.3H38.3V196.7Z" fill="#FFB41D"/>
<path id="Vector_17" d="M63.9 191.8H62.4V199.5H67.8V198.2H63.9V191.8Z" fill="#FFB41D"/>
<path id="Vector_18" d="M80.4 191.8H78.8V199.5H80.4V191.8Z" fill="#FFB41D"/>
<path id="Vector_19" d="M96.5 197L93.3 191.8H91.8V199.5H93.2V194.5L96.4 199.5H97.9V191.8H96.5V197Z" fill="#FFB41D"/>
<path id="Vector_20" d="M111 196.1H114.9V194.8H111V193.1H115.2V191.8H109.5V199.5H115.3V198.2H111V196.1Z" fill="#FFB41D"/>
<path id="Vector_21" d="M140.2 194.9H137.1V191.8H135.5V199.5H137.1V196.2H140.2V199.5H141.7V191.8H140.2V194.9Z" fill="#FFB41D"/>
<path id="Vector_22" d="M154.8 196.1H158.6V194.8H154.8V193.1H158.9V191.8H153.2V199.5H159.1V198.2H154.8V196.1Z" fill="#FFB41D"/>
<path id="Vector_23" d="M174.6 196.1C176 195.9 176.6 195.2 176.6 194C176.6 193.2 176.3 192.6 175.8 192.3C175.3 192 174.5 191.8 173.5 191.8H170.2V199.5H171.8V196.3H172.1C172.5 196.3 172.9 196.4 173.1 196.5C173.3 196.6 173.5 196.8 173.7 197.1L175.4 199.6H177.3L176.4 198.1C175.7 197 175.1 196.4 174.6 196.1ZM173 195.1H171.8V193.2H173C173.8 193.2 174.4 193.3 174.6 193.4C174.8 193.5 174.9 193.8 174.9 194.2C174.9 194.6 174.8 194.9 174.5 195C174.4 195 173.8 195.1 173 195.1Z" fill="#FFB41D"/>
<path id="Vector_24" d="M189.6 196.1H193.4V194.8H189.6V193.1H193.7V191.8H188V199.5H193.9V198.2H189.6V196.1Z" fill="#FFB41D"/>
</g>
<g id="Group_3">
<path id="Vector_25" d="M87.2 20.8V78.6V118H48.6C50.5 108.6 55.1 100 62.1 93C69 86 77.6 81.4 87 79.5C86.9 79.2 86.9 78.9 86.9 78.5H48.8C48.6 78.7 48.4 78.9 48.3 79C42 85.3 37 92.7 33.5 100.9C29.9 109.4 28.1 118.4 28.1 127.7V137.5H106.6H106.7V78.5V77.8V68.7V20.6H106.8H145.4C143.5 30 138.9 38.6 131.9 45.6C126.9 50.6 121.1 54.3 114.7 56.8V59H146.2C152.3 52.8 157.1 45.6 160.5 37.6C164.1 29.1 165.9 20.1 165.9 10.8V1H87.2V20.8Z" fill="#FFB41D"/>
<path id="Vector_26" d="M87.2 79.5V78.6H86.9H48.8H86.9C86.9 78.9 87 79.2 87 79.6C87.1 79.5 87.1 79.5 87.2 79.5Z" fill="#FFB41D"/>
<path id="Vector_27" d="M86.9 78.6H87.2V20.8C87 20.6 86.8 20.4 86.6 20.2C80.2 13.8 72.9 8.9 64.7 5.4C56.2 1.8 47.2 0 37.9 0H28V78.6H48.8H86.9ZM47.6 59V20.5C57 22.4 65.7 27 72.7 34C79.6 40.9 84.3 49.6 86.2 59H47.6Z" fill="black"/>
<path id="Vector_28" d="M114.7 78.6H145.4V117C135.9 115.1 127.3 110.5 120.3 103.5C118.2 101.4 116.4 99.2 114.7 96.9V124.5C118.9 127.6 123.5 130.1 128.3 132.2C136.8 135.8 145.8 137.6 155.1 137.6H165V59H146.2H114.7V78.6Z" fill="black"/>
<path id="Vector_29" d="M106.6 137.6H106.8V78.6V77.9V68.8V20.6H106.6V137.6Z" fill="white"/>
</g>
</g>
</g>
<defs>
<clipPath id="clip0_105_27">
<rect width="193.9" height="199.7" fill="white"/>
</clipPath>
</defs>
</svg>
